<svg xmlns="http://www.w3.org/2000/svg" viewBox="0 0 512 512" role="img" aria-label="Intercambio CR">
  <defs>
    <linearGradient id="bg" x1="0" y1="0" x2="512" y2="512" gradientUnits="userSpaceOnUse">
      <stop stop-color="#0B74D1"/>
      <stop offset="1" stop-color="#18A565"/>
    </linearGradient>
  </defs>
  <rect width="512" height="512" rx="0" fill="url(#bg)"/>
  <rect x="72" y="72" width="368" height="368" rx="92" fill="#FFFFFF" opacity="0.96"/>
  <path d="M22 300c0-72 54-130 120-130 44 0 81 24 113 66l30 39c22 29 47 46 79 46 37 0 66-29 66-69s-29-69-69-69c-24 0-45 11-63 31" fill="none" stroke="#0B74D1" stroke-width="48" stroke-linecap="round" stroke-linejoin="round"/>
  <path d="M490 212c0 72-54 130-120 130-44 0-81-24-113-66l-30-39c-22-29-47-46-79-46-37 0-66 29-66 69s29 69 69 69c24 0 45-11 63-31" fill="none" stroke="#18A565" stroke-width="48" stroke-linecap="round" stroke-linejoin="round"/>
</svg>
