<svg xmlns="http://www.w3.org/2000/svg" viewBox="0 0 512 512" role="img" aria-labelledby="title desc">
  <title id="title">Intercambio CR</title>
  <desc id="desc">Símbolo minimalista de intercambio circular para Intercambio CR.</desc>
  <defs>
    <linearGradient id="bg" x1="72" y1="70" x2="440" y2="442" gradientUnits="userSpaceOnUse">
      <stop stop-color="#F4FAFF"/>
      <stop offset="1" stop-color="#EAF8F1"/>
    </linearGradient>
    <linearGradient id="ring" x1="118" y1="118" x2="394" y2="394" gradientUnits="userSpaceOnUse">
      <stop stop-color="#0B74D1"/>
      <stop offset="0.54" stop-color="#0D9E74"/>
      <stop offset="1" stop-color="#28B463"/>
    </linearGradient>
  </defs>
  <rect x="40" y="40" width="432" height="432" rx="108" fill="url(#bg)"/>
  <path d="M12 300c0-72 54-130 120-130 44 0 81 24 113 66l30 39c22 29 47 46 79 46 37 0 66-29 66-69s-29-69-69-69c-24 0-45 11-63 31" fill="none" stroke="#0B74D1" stroke-width="48" stroke-linecap="round" stroke-linejoin="round"/>
  <path d="M500 212c0 72-54 130-120 130-44 0-81-24-113-66l-30-39c-22-29-47-46-79-46-37 0-66 29-66 69s29 69 69 69c24 0 45-11 63-31" fill="none" stroke="#18A565" stroke-width="48" stroke-linecap="round" stroke-linejoin="round"/>
  <circle cx="256" cy="256" r="158" fill="none" stroke="url(#ring)" stroke-width="10" opacity="0.18"/>
</svg>
