<svg xmlns="http://www.w3.org/2000/svg" viewBox="0 0 720 176" role="img" aria-labelledby="title desc">
  <title id="title">Intercambio CR</title>
  <desc id="desc">Logo minimalista de Intercambio CR con símbolo de intercambio circular azul y verde.</desc>
  <defs>
    <linearGradient id="markGradient" x1="24" y1="26" x2="142" y2="150" gradientUnits="userSpaceOnUse">
      <stop stop-color="#0B74D1"/>
      <stop offset="0.52" stop-color="#0D9E74"/>
      <stop offset="1" stop-color="#28B463"/>
    </linearGradient>
    <linearGradient id="blueGreen" x1="0" y1="0" x2="1" y2="1">
      <stop stop-color="#0B74D1"/>
      <stop offset="1" stop-color="#15A66E"/>
    </linearGradient>
  </defs>

  <g transform="translate(18 18)">
    <rect width="140" height="140" rx="34" fill="#F4FAFF"/>
    <path
      d="M37 78c0-24 18-43 40-43 15 0 27 8 38 22l10 13c7 9 15 15 26 15 12 0 22-10 22-23s-10-23-23-23c-8 0-15 4-21 10"
      fill="none"
      stroke="#0B74D1"
      stroke-width="16"
      stroke-linecap="round"
      stroke-linejoin="round"
      transform="translate(-35 3)"
    />
    <path
      d="M103 62c0 24-18 43-40 43-15 0-27-8-38-22L15 70C8 61 0 55-11 55c-12 0-22 10-22 23s10 23 23 23c8 0 15-4 21-10"
      fill="none"
      stroke="#18A565"
      stroke-width="16"
      stroke-linecap="round"
      stroke-linejoin="round"
      transform="translate(36 0)"
    />
    <circle cx="70" cy="70" r="48" fill="none" stroke="url(#markGradient)" stroke-width="3" opacity="0.22"/>
  </g>

  <g transform="translate(192 48)">
    <text x="0" y="42" fill="#172033" font-family="Inter, Segoe UI, Arial, sans-serif" font-size="46" font-weight="850" letter-spacing="0">Intercambio</text>
    <text x="0" y="88" fill="url(#blueGreen)" font-family="Inter, Segoe UI, Arial, sans-serif" font-size="43" font-weight="850" letter-spacing="0">CR</text>
    <path d="M74 102h168" stroke="#18A565" stroke-width="7" stroke-linecap="round"/>
  </g>
</svg>
