<svg xmlns="http://www.w3.org/2000/svg" viewBox="0 0 1440 900">
  <rect width="1440" height="900" fill="#eff8ff"/>
  <rect width="1440" height="72" fill="#ffffff"/>
  <rect x="64" y="18" width="40" height="36" rx="8" fill="#0b6fbe"/>
  <rect x="124" y="22" width="180" height="14" rx="7" fill="#172033"/>
  <rect x="124" y="44" width="140" height="10" rx="5" fill="#94a3b8"/>
  <rect x="960" y="18" width="110" height="36" rx="8" fill="#22a76f"/>
  <rect x="64" y="128" width="600" height="320" rx="14" fill="#ffffff"/>
  <rect x="96" y="176" width="460" height="48" rx="24" fill="#172033"/>
  <rect x="96" y="248" width="500" height="18" rx="9" fill="#64748b"/>
  <rect x="96" y="286" width="430" height="18" rx="9" fill="#64748b"/>
  <rect x="96" y="346" width="168" height="48" rx="10" fill="#0b6fbe"/>
  <rect x="284" y="346" width="148" height="48" rx="10" fill="#ffffff" stroke="#cbd5e1"/>
  <rect x="720" y="128" width="320" height="360" rx="14" fill="#ffffff"/>
  <rect x="1060" y="128" width="320" height="360" rx="14" fill="#ffffff"/>
  <rect x="744" y="152" width="272" height="180" rx="12" fill="#d6f9e4"/>
  <rect x="1084" y="152" width="272" height="180" rx="12" fill="#dff0ff"/>
  <rect x="744" y="360" width="190" height="18" rx="9" fill="#172033"/>
  <rect x="1084" y="360" width="190" height="18" rx="9" fill="#172033"/>
  <rect x="744" y="412" width="92" height="26" rx="13" fill="#0b6fbe"/>
  <rect x="1084" y="412" width="92" height="26" rx="13" fill="#0b6fbe"/>
  <rect x="64" y="560" width="1316" height="220" rx="14" fill="#ffffff"/>
</svg>
